<svg xmlns="http://www.w3.org/2000/svg" width="1200" height="1200" viewBox="0 0 1200 1200" role="img" aria-labelledby="title desc">
  <title id="title">Byte Boss Brianna — Ms. Wisdom Symbolic Render V0.1</title>
  <desc id="desc">A privacy-safe symbolic badge render for Byte Boss Brianna. This is not a likeness.</desc>
  <defs>
    <radialGradient id="glow" cx="50%" cy="25%" r="70%">
      <stop offset="0%" stop-color="#fff0a8" stop-opacity="0.95"/>
      <stop offset="38%" stop-color="#8d5cff" stop-opacity="0.48"/>
      <stop offset="100%" stop-color="#0b1020" stop-opacity="1"/>
    </radialGradient>
    <linearGradient id="gold" x1="0" x2="1" y1="0" y2="1">
      <stop offset="0%" stop-color="#fff7c7"/>
      <stop offset="48%" stop-color="#f6c453"/>
      <stop offset="100%" stop-color="#b87516"/>
    </linearGradient>
    <linearGradient id="badge" x1="0" x2="1" y1="0" y2="1">
      <stop offset="0%" stop-color="#2c145e"/>
      <stop offset="52%" stop-color="#101827"/>
      <stop offset="100%" stop-color="#132c1f"/>
    </linearGradient>
    <filter id="softShadow" x="-20%" y="-20%" width="140%" height="140%">
      <feDropShadow dx="0" dy="18" stdDeviation="22" flood-color="#000000" flood-opacity="0.55"/>
    </filter>
  </defs>

  <rect width="1200" height="1200" fill="#0b1020"/>
  <rect width="1200" height="1200" fill="url(#glow)" opacity="0.92"/>

  <g opacity="0.18" stroke="#ffe27a" stroke-width="2" fill="none">
    <path d="M120 260 C320 160 500 160 720 260 S1030 360 1100 230"/>
    <path d="M80 930 C310 760 550 800 720 900 S1010 1030 1130 850"/>
    <path d="M185 160 L1015 1040"/>
    <path d="M1015 160 L185 1040"/>
  </g>

  <g filter="url(#softShadow)">
    <circle cx="600" cy="575" r="365" fill="url(#badge)" stroke="url(#gold)" stroke-width="10"/>
    <circle cx="600" cy="575" r="320" fill="none" stroke="#fff0a8" stroke-width="3" opacity="0.55" stroke-dasharray="18 18"/>
  </g>

  <g transform="translate(600 215)">
    <path d="M-170 105 L-126 10 L-52 88 L0 -18 L52 88 L126 10 L170 105 Z" fill="url(#gold)" stroke="#fff5bf" stroke-width="5"/>
    <circle cx="-126" cy="10" r="16" fill="#fff7c7"/>
    <circle cx="0" cy="-18" r="18" fill="#fff7c7"/>
    <circle cx="126" cy="10" r="16" fill="#fff7c7"/>
  </g>

  <g transform="translate(600 555)">
    <circle cx="0" cy="0" r="118" fill="#101827" stroke="url(#gold)" stroke-width="8"/>
    <text x="0" y="-32" text-anchor="middle" font-family="Georgia, serif" font-size="64" font-weight="700" fill="#fff7c7">BB</text>
    <text x="0" y="44" text-anchor="middle" font-family="Georgia, serif" font-size="44" font-weight="700" fill="#f6c453">BRIANNA</text>
  </g>

  <g transform="translate(600 780)">
    <rect x="-345" y="-78" width="690" height="156" rx="42" fill="#0b1020" opacity="0.86" stroke="url(#gold)" stroke-width="5"/>
    <text x="0" y="-24" text-anchor="middle" font-family="Georgia, serif" font-size="56" font-weight="700" fill="#fff7c7">Byte Boss Brianna</text>
    <text x="0" y="38" text-anchor="middle" font-family="Arial, sans-serif" font-size="30" font-weight="700" fill="#f6c453">MS. WISDOM BADGE · LOVE FIRST</text>
  </g>

  <g transform="translate(160 1015)">
    <rect x="0" y="0" width="880" height="78" rx="24" fill="#000000" opacity="0.42"/>
    <text x="36" y="49" font-family="Arial, sans-serif" font-size="26" fill="#fff7c7">PROTECTED SYMBOLIC RENDER · NOT A LIKENESS · HUMAN VISUAL APPROVAL REQUIRED</text>
  </g>

  <g transform="translate(600 990)" fill="#ffe27a" opacity="0.92">
    <circle cx="-54" cy="0" r="9"/>
    <circle cx="-18" cy="0" r="9"/>
    <circle cx="18" cy="0" r="9"/>
    <circle cx="54" cy="0" r="9"/>
  </g>
</svg>
